# xmcd
# 
# Track frame offsets:
#     183
#     17073
#     32698
#     52980
#     81898
#     97310
#     114728
#     135725
#     154183
#     166933
#     189210
#     209318
#     238468
#     250775
#     269230
#     285540
# 
# Disc length: 4038
# 
# Revision: 4
# Processed by: cddbd v1.5.2PL0 Copyright (c) Steve Scherf et al.
# Submitted via: fre:ac v1.0.17
# 
DISCID=e70fc410
DTITLE=Various Artist - NightLife
DYEAR=1991
DGENRE=Blues
TTITLE0=Flavium - Nightlife
TTITLE1=B.B. King - Ain't Nobody Home
TTITLE2=John Lee Hooker and Bonnie Raitt - - I'm in the Mood
TTITLE3=Cuby and Blizzards - Something Inside Me
TTITLE4=Little Milton - Blind Man
TTITLE5=Oscar Benton - Bensonhurst Blues
TTITLE6=Santana - Stormy
TTITLE7=Bobby Bland - Members Only
TTITLE8=J.J. Cale - Cocaine
TTITLE9=Vaughan Brothers - Tick Tock
TTITLE10=Livin'Blues - Black Night
TTITLE11=Snowy White - Change My Life
TTITLE12=Etta James - Something's Got a Hold On Me
TTITLE13=Rory Block - Lovin' Whiskey
TTITLE14=Brendan Croker - No Money at all
TTITLE15=Fleetwood Mac - Need your love so bad
EXTD=YEAR: 1991
EXTT0=
EXTT1=
EXTT2=
EXTT3=
EXTT4=
EXTT5=
EXTT6=
EXTT7=
EXTT8=
EXTT9=
EXTT10=
EXTT11=
EXTT12=
EXTT13=
EXTT14=
EXTT15=
PLAYORDER=
